<svg version="1.1" xmlns="http://www.w3.org/2000/svg" xmlns:xlink="http://www.w3.org/1999/xlink" viewBox="0 0 172 172"><g fill="none" fill-rule="nonzero" stroke="none" stroke-width="1" stroke-linecap="butt" stroke-linejoin="miter" stroke-miterlimit="10" stroke-dasharray="" stroke-dashoffset="0" font-family="none" font-weight="none" font-size="none" text-anchor="none" style="mix-blend-mode: normal"><path d="M0,172v-172h172v172z" fill="none"></path><g fill="#ffffff"><path d="M86.00084,0c-5.32402,0 -10.648,1.332 -15.39657,3.99546c-3.74007,2.09837 -7.98353,3.23495 -12.27203,3.28836c-10.8883,0.13478 -21.10682,6.03456 -26.66746,15.39657c-2.19013,3.68666 -5.29699,6.79318 -8.98437,8.98367c-9.36201,5.56064 -15.26144,15.77917 -15.39657,26.66746c-0.05305,4.28814 -1.19035,8.53196 -3.28836,12.27203c-5.32693,9.49679 -5.32693,21.2953 0,30.79245c2.09801,3.74043 3.23531,7.98423 3.28836,12.27273c0.13514,10.88794 6.03456,21.10612 15.39657,26.66676c3.68702,2.19013 6.79353,5.29699 8.98367,8.98437c5.56064,9.36165 15.77953,15.26109 26.66746,15.39587c4.2885,0.05305 8.53232,1.18999 12.27203,3.28836c9.49751,5.32729 21.2953,5.32729 30.79245,0c3.74007,-2.09837 7.98353,-3.23496 12.27203,-3.28836c10.88829,-0.13478 21.10752,-6.03456 26.66816,-15.39657c2.19013,-3.68666 5.29629,-6.79318 8.98367,-8.98367c5.79937,-3.44435 10.41641,-8.77424 13.00083,-15.00662c0.6065,-1.46319 -0.08788,-3.14113 -1.55072,-3.74763c-1.46248,-0.60686 -3.14007,0.08788 -3.74693,1.55072c-2.11342,5.09753 -5.88974,9.45603 -10.6324,12.27273c-4.50895,2.67834 -8.30763,6.47666 -10.98525,10.98525c-4.54766,7.65579 -12.90416,12.48052 -21.80808,12.59128c-5.24377,0.06488 -10.43279,1.45523 -15.00662,4.02066c-7.76619,4.35661 -17.41497,4.35661 -25.18115,0c-4.57347,-2.56543 -9.76249,-3.95579 -15.00662,-4.02066c-8.90391,-0.11076 -17.26041,-4.93549 -21.80808,-12.59128c-2.67834,-4.50895 -6.47666,-8.30796 -10.98525,-10.98595c-7.65579,-4.5473 -12.48017,-12.90277 -12.59058,-21.80668c-0.06488,-5.24413 -1.45558,-10.43313 -4.02137,-15.00732c-4.35625,-7.76619 -4.35625,-17.41496 0,-25.18115c2.56579,-4.57383 3.95649,-9.76284 4.02137,-15.00662c0.1104,-8.90427 4.93479,-17.26078 12.59058,-21.80808c4.50895,-2.67834 8.30762,-6.47666 10.98525,-10.98525c4.54766,-7.65579 12.90416,-12.48052 21.80808,-12.59128c5.24377,-0.06488 10.43279,-1.45524 15.00662,-4.02067c7.76583,-4.35697 17.4146,-4.35697 25.18115,0c4.57347,2.56543 9.76248,3.95579 15.00662,4.02067c8.90391,0.11076 17.26041,4.93549 21.80808,12.59128c2.67798,4.50859 6.47666,8.30727 10.98525,10.98525c7.65579,4.5473 12.48017,12.90346 12.59058,21.80738c0.06488,5.24413 1.45558,10.43313 4.02137,15.00732c4.35625,7.76619 4.35625,17.41496 0,25.18115c-1.20834,2.15465 -2.16225,4.45188 -2.8347,6.82876c-0.43122,1.52377 0.45471,3.10919 1.97848,3.5404c1.52521,0.43086 3.10918,-0.45541 3.5404,-1.97918c0.54986,-1.94352 1.32978,-3.8222 2.31803,-5.58399c5.32693,-9.49643 5.32693,-21.2953 0,-30.79245c-2.09801,-3.74043 -3.23531,-7.98423 -3.28836,-12.27273c-0.13514,-10.88829 -6.03456,-21.10612 -15.39657,-26.66676c-3.68738,-2.19013 -6.79353,-5.29735 -8.98367,-8.98437c-5.56064,-9.36165 -15.77952,-15.26109 -26.66746,-15.39587c-4.2885,-0.05305 -8.53162,-1.18999 -12.27133,-3.28836c-4.74839,-2.66347 -10.07255,-3.99546 -15.39657,-3.99546zM86.00014,31.1572c-1.58364,0 -2.8676,1.28397 -2.8676,2.8676v2.86761h-2.8676c-1.58364,0 -2.8676,1.28397 -2.8676,2.8676c0,1.58363 1.28397,2.8676 2.8676,2.8676h2.8676v2.8676c0,1.58363 1.28397,2.8676 2.8676,2.8676c1.58363,0 2.8676,-1.28397 2.8676,-2.8676v-2.8676h2.8676c1.58363,0 2.8676,-1.28397 2.8676,-2.8676c0,-1.58364 -1.28397,-2.86761 -2.8676,-2.8676h-2.8676v-2.86761c0,-1.58363 -1.28397,-2.8676 -2.8676,-2.8676zM40.83536,41.91072c-0.73384,0 -1.46759,0.2797 -2.02749,0.83942c-1.12016,1.12016 -1.12016,2.93551 0,4.05567l2.27392,2.27392l-2.27392,2.27322c-1.12016,1.12016 -1.12016,2.93551 0,4.05567c1.12016,1.1198 2.93518,1.11944 4.05497,0l2.27392,-2.27392l2.27392,2.27392c1.12016,1.1198 2.93517,1.11944 4.05497,0c1.12016,-1.12016 1.12016,-2.93551 0,-4.05567l-2.27392,-2.27322l2.27392,-2.27392c1.12016,-1.1198 1.12016,-2.93551 0,-4.05567c-1.1198,-1.11944 -2.93517,-1.11944 -4.05497,0l-2.27392,2.27392l-2.27392,-2.27392c-0.5599,-0.55972 -1.29364,-0.83942 -2.02748,-0.83942zM122.5621,41.91072c-0.73384,0 -1.46759,0.2797 -2.02749,0.83942c-1.12016,1.12016 -1.12016,2.93551 0,4.05567l2.27392,2.27392l-2.27392,2.27322c-1.12016,1.12016 -1.12016,2.93551 0,4.05567c1.12016,1.1198 2.93518,1.11944 4.05497,0l2.27392,-2.27392l2.27392,2.27392c1.12016,1.1198 2.93518,1.11944 4.05497,0c1.12016,-1.12016 1.12016,-2.93551 0,-4.05567l-2.27392,-2.27322l2.27392,-2.27392c1.12016,-1.1198 1.12016,-2.93551 0,-4.05567c-1.1198,-1.11944 -2.93517,-1.11944 -4.05497,0l-2.27392,2.27392l-2.27392,-2.27392c-0.5599,-0.55972 -1.29365,-0.83942 -2.02748,-0.83942zM28.64804,77.39732c-1.58363,0 -2.8676,1.28397 -2.8676,2.8676v2.8676h-2.8676c-1.58363,0 -2.8676,1.28397 -2.8676,2.8676c0,1.58363 1.28397,2.8676 2.8676,2.8676h2.8676v2.8676c0,1.58363 1.28361,2.8676 2.8676,2.8676c1.58363,0 2.8676,-1.28397 2.8676,-2.8676v-2.8676h2.8676c1.58364,0 2.86761,-1.28397 2.86761,-2.8676c0,-1.58364 -1.28397,-2.8676 -2.86761,-2.8676h-2.8676v-2.8676c0,-1.58364 -1.28397,-2.8676 -2.8676,-2.8676zM86.00014,77.39732c-1.58364,0 -2.8676,1.28397 -2.8676,2.8676v2.8676h-2.8676c-1.58364,0 -2.8676,1.28397 -2.8676,2.8676c0,1.58363 1.28397,2.8676 2.8676,2.8676h2.8676v2.8676c0,1.58363 1.28397,2.8676 2.8676,2.8676c1.58363,0 2.8676,-1.28397 2.8676,-2.8676v-2.8676h2.8676c1.58363,0 2.8676,-1.28397 2.8676,-2.8676c0,-1.58364 -1.28397,-2.8676 -2.8676,-2.8676h-2.8676v-2.8676c0,-1.58364 -1.28397,-2.8676 -2.8676,-2.8676zM143.35223,77.39732c-1.58364,0 -2.8676,1.28397 -2.8676,2.8676v2.8676h-2.8676c-1.58364,0 -2.8676,1.28397 -2.8676,2.8676c0,1.58363 1.28397,2.8676 2.8676,2.8676h2.8676v2.8676c0,1.58363 1.28361,2.8676 2.8676,2.8676c1.58363,0 2.8676,-1.28397 2.8676,-2.8676v-2.8676h2.8676c1.58363,0 2.8676,-1.28397 2.8676,-2.8676c0,-1.58364 -1.28397,-2.8676 -2.8676,-2.8676h-2.8676v-2.8676c0,-1.58364 -1.28397,-2.8676 -2.8676,-2.8676zM40.83536,115.75153c-0.73384,0 -1.46759,0.2797 -2.02749,0.83942c-1.12016,1.12016 -1.12016,2.93551 0,4.05567l2.27392,2.27392l-2.27392,2.27322c-1.12016,1.12016 -1.12016,2.93551 0,4.05567c1.12016,1.1198 2.93518,1.11944 4.05497,0l2.27392,-2.27392l2.27392,2.27392c1.12016,1.1198 2.93517,1.11944 4.05497,0c1.12016,-1.12016 1.12016,-2.93551 0,-4.05567l-2.27392,-2.27322l2.27392,-2.27392c1.12016,-1.1198 1.12016,-2.93551 0,-4.05567c-1.1198,-1.11944 -2.93517,-1.11944 -4.05497,0l-2.27392,2.27392l-2.27392,-2.27392c-0.5599,-0.55972 -1.29364,-0.83942 -2.02748,-0.83942zM122.5621,115.75153c-0.73384,0 -1.46759,0.2797 -2.02749,0.83942c-1.12016,1.12016 -1.12016,2.93551 0,4.05567l2.27392,2.27392l-2.27392,2.27322c-1.12016,1.12016 -1.12016,2.93551 0,4.05567c1.12016,1.1198 2.93518,1.11944 4.05497,0l2.27392,-2.27392l2.27392,2.27392c1.12016,1.1198 2.93518,1.11944 4.05497,0c1.12016,-1.12016 1.12016,-2.93551 0,-4.05567l-2.27392,-2.27322l2.27392,-2.27392c1.12016,-1.1198 1.12016,-2.93551 0,-4.05567c-1.1198,-1.11944 -2.93517,-1.11944 -4.05497,0l-2.27392,2.27392l-2.27392,-2.27392c-0.5599,-0.55972 -1.29365,-0.83942 -2.02748,-0.83942zM86.00014,123.63745c-1.58364,0 -2.8676,1.28397 -2.8676,2.8676v2.8676h-2.8676c-1.58364,0 -2.8676,1.28397 -2.8676,2.8676c0,1.58363 1.28397,2.8676 2.8676,2.8676h2.8676v2.8676c0,1.58363 1.28361,2.8676 2.8676,2.8676c1.58363,0 2.8676,-1.28397 2.8676,-2.8676v-2.8676h2.8676c1.58363,0 2.8676,-1.28397 2.8676,-2.8676c0,-1.58364 -1.28397,-2.8676 -2.8676,-2.8676h-2.8676v-2.8676c0,-1.58364 -1.28397,-2.8676 -2.8676,-2.8676z"></path></g></g></svg>