<svg version="1.1" xmlns="http://www.w3.org/2000/svg" xmlns:xlink="http://www.w3.org/1999/xlink" viewBox="0 0 172 172"><g fill="none" fill-rule="nonzero" stroke="none" stroke-width="1" stroke-linecap="butt" stroke-linejoin="miter" stroke-miterlimit="10" stroke-dasharray="" stroke-dashoffset="0" font-family="none" font-weight="none" font-size="none" text-anchor="none" style="mix-blend-mode: normal"><path d="M0,172v-172h172v172z" fill="none"></path><g fill="#ffffff"><path d="M56.4375,29.5625c-31.648,0 -56.4375,14.16581 -56.4375,32.25c0,7.24012 4.0011,14.04559 11.55835,19.67859c2.83648,2.03301 4.53293,5.29722 4.56665,8.78686v38.72205c0.00889,7.41764 6.01986,13.42861 13.4375,13.4375h112.875c7.41764,-0.00889 13.42861,-6.01986 13.4375,-13.4375v-38.72205c0.03372,-3.48965 1.73017,-6.75385 4.56665,-8.78686c7.55725,-5.633 11.55835,-12.43846 11.55835,-19.67859c0,-18.08419 -24.7895,-32.25 -56.4375,-32.25zM56.4375,34.9375c27.68125,0 51.0625,12.30875 51.0625,26.875c0,6.91494 -5.10625,12.17639 -9.40625,15.36914c-4.19875,3.0452 -6.69431,7.90958 -6.71875,13.09631v38.72205c0,4.4528 -3.6097,8.0625 -8.0625,8.0625h-53.75c-4.4528,0 -8.0625,-3.6097 -8.0625,-8.0625v-38.72205c-0.02444,-5.18673 -2.52,-10.05111 -6.71875,-13.09631c-4.3,-3.19275 -9.40625,-8.4542 -9.40625,-15.36914c0,-14.56625 23.38125,-26.875 51.0625,-26.875zM88.02612,34.9375h27.53638c27.68125,0 51.0625,12.30875 51.0625,26.875c0,6.91494 -5.10625,12.17639 -9.40625,15.36914c-4.19875,3.0452 -6.69431,7.90958 -6.71875,13.09631v38.72205c0,4.4528 -3.6097,8.0625 -8.0625,8.0625h-48.44324c1.77802,-2.3125 2.74633,-5.14549 2.75574,-8.0625v-38.72205c0.03372,-3.48965 1.73017,-6.75385 4.56665,-8.78686c7.55725,-5.633 11.55835,-12.43846 11.55835,-19.67859c0,-11.34663 -9.76394,-21.14525 -24.84888,-26.875zM56.4375,40.3125c-26.92606,0 -45.6875,11.3305 -45.6875,21.5c0,4.68431 3.9329,8.59807 7.23315,11.05444c5.53496,4.08419 8.82818,10.53261 8.89185,17.41101v38.72205c0,1.48427 1.20323,2.6875 2.6875,2.6875h53.75c1.48427,0 2.6875,-1.20323 2.6875,-2.6875v-38.72205c0.0624,-6.87871 3.35589,-13.32766 8.89185,-17.41101c3.30025,-2.45638 7.23315,-6.37013 7.23315,-11.05444c0,-10.1695 -18.76144,-21.5 -45.6875,-21.5zM56.4375,45.6875c24.99375,0 40.3125,10.44094 40.3125,16.125c0,1.85975 -1.88318,4.38 -5.07056,6.745c-6.8938,5.10032 -10.98822,13.14529 -11.05444,21.72046v36.03455h-48.375v-36.03455c-0.06744,-8.57342 -4.16178,-16.61627 -11.05444,-21.71521c-3.17662,-2.36769 -5.07056,-4.89049 -5.07056,-6.75024c0,-5.68406 15.31875,-16.125 40.3125,-16.125zM86.93957,59.4137c-0.60595,-0.01666 -1.19975,0.17202 -1.68494,0.5354c-1.10229,0.82 -2.15892,1.69964 -3.16516,2.63501c-1.04838,1.01704 -1.09273,2.68514 -0.09988,3.75646c0.99286,1.07131 2.65951,1.15371 3.7532,0.18556c0.86599,-0.80504 1.77543,-1.56203 2.72424,-2.26758c0.57416,-0.42573 0.95507,-1.06265 1.0585,-1.76991c0.10343,-0.70726 -0.07915,-1.42658 -0.50735,-1.99889c-0.49209,-0.65741 -1.25773,-1.05377 -2.07861,-1.07605zM78.58838,67.94861c-0.85821,0.02652 -1.6521,0.4615 -2.13635,1.17053h0.0105c-4.27931,6.22726 -6.57563,13.60295 -6.58752,21.15881c0,1.48427 1.20323,2.6875 2.6875,2.6875c1.48427,0 2.6875,-1.20323 2.6875,-2.6875c0.01054,-6.47398 1.97742,-12.79363 5.6427,-18.13013c0.56904,-0.8355 0.62114,-1.91963 0.13483,-2.80584c-0.48631,-0.88621 -1.42876,-1.42459 -2.43915,-1.39337z"></path></g></g></svg>