<svg version="1.1" xmlns="http://www.w3.org/2000/svg" xmlns:xlink="http://www.w3.org/1999/xlink" viewBox="0 0 172 172"><g fill="none" fill-rule="nonzero" stroke="none" stroke-width="1" stroke-linecap="butt" stroke-linejoin="miter" stroke-miterlimit="10" stroke-dasharray="" stroke-dashoffset="0" font-family="none" font-weight="none" font-size="none" text-anchor="none" style="mix-blend-mode: normal"><path d="M0,172v-172h172v172z" fill="none"></path><g id="original-icon" fill="#ffffff"><path d="M118.25,2.6875c-13.47932,0 -25.19091,7.66211 -31.01123,18.87549c-0.41037,-0.03162 -0.8206,-0.06299 -1.23877,-0.06299c-8.34928,0 -15.25827,6.42096 -16.04626,14.57129l-26.6283,-6.50879h-0.32544c-1.40167,0 -1.71166,0.41582 -2.25708,0.74011c-0.54542,0.32429 -1.0996,0.71919 -1.72693,1.19678c-1.25466,0.95517 -2.77447,2.24355 -4.50891,3.7793c-3.46888,3.0715 -7.76139,7.11438 -11.95728,11.15942c-8.39177,8.09008 -16.39795,16.17224 -16.39795,16.17224c-0.00176,0.0035 -0.00351,0.00699 -0.00525,0.0105c-0.00702,0.00522 -0.01402,0.01047 -0.021,0.01575c-0.6117,0.61233 -0.89109,1.48177 -0.75061,2.33581v72.09009c0,4.42086 3.64164,8.0625 8.0625,8.0625h145.125c4.42086,0 8.0625,-3.64164 8.0625,-8.0625v-45.23608c0.04797,-0.29023 0.04797,-0.58636 0,-0.87659v-28.42346c0.29909,-1.12744 -0.16316,-2.31911 -1.14429,-2.94995c-0.39372,-0.27555 -0.85412,-0.4405 -1.33325,-0.47766l-63.20349,-15.45312c0.75628,-1.86365 1.18103,-3.89278 1.18103,-6.02063c0,-6.52331 -3.92584,-12.15845 -9.52698,-14.69202c5.09613,-8.88129 14.6528,-14.87048 25.65198,-14.87048c0.96921,0.01371 1.87072,-0.49551 2.35932,-1.33266c0.4886,-0.83715 0.4886,-1.87253 0,-2.70968c-0.4886,-0.83715 -1.39011,-1.34637 -2.35932,-1.33266zM86,26.875c5.96889,0 10.75,4.78111 10.75,10.75c0,5.96889 -4.78111,10.75 -10.75,10.75c-5.96889,0 -10.75,-4.78111 -10.75,-10.75c0,-5.96889 4.78111,-10.75 10.75,-10.75zM43.2677,35.07922l27.15845,6.64527c1.82677,6.89873 8.11851,12.02551 15.57385,12.02551c4.71621,0 8.96072,-2.06053 11.91528,-5.31201l63.33472,15.48462v24.76489h-120.9375c-0.96921,-0.01371 -1.87072,0.49551 -2.35932,1.33266c-0.4886,0.83715 -0.4886,1.87253 0,2.70968c0.4886,0.83715 1.39011,1.34637 2.35932,1.33266h120.9375v43c0,1.51852 -1.16898,2.6875 -2.6875,2.6875h-145.125c-1.51852,0 -2.6875,-1.16898 -2.6875,-2.6875v-69.875h104.87024c0.96921,0.01371 1.87072,-0.49551 2.35932,-1.33266c0.4886,-0.83715 0.4886,-1.87253 0,-2.70968c-0.4886,-0.83715 -1.39011,-1.34637 -2.35932,-1.33266h-101.0647c3.09526,-3.07994 7.1891,-7.12651 11.72632,-11.50061c4.16728,-4.01746 8.42899,-8.03708 11.78931,-11.01245c1.68016,-1.48769 3.14247,-2.71884 4.20447,-3.52734c0.43261,-0.32935 0.73488,-0.5278 0.99206,-0.69287zM126.3125,61.8125c-0.96921,-0.01371 -1.87072,0.49551 -2.35932,1.33266c-0.4886,0.83715 -0.4886,1.87253 0,2.70968c0.4886,0.83715 1.39011,1.34637 2.35932,1.33266h10.75c0.96921,0.01371 1.87072,-0.49551 2.35932,-1.33266c0.4886,-0.83715 0.4886,-1.87253 0,-2.70968c-0.4886,-0.83715 -1.39011,-1.34637 -2.35932,-1.33266zM18.8125,88.6875c-0.96921,-0.01371 -1.87072,0.49551 -2.35932,1.33266c-0.4886,0.83715 -0.4886,1.87253 0,2.70968c0.4886,0.83715 1.39011,1.34637 2.35932,1.33266h10.75c0.96921,0.01371 1.87072,-0.49551 2.35932,-1.33266c0.4886,-0.83715 0.4886,-1.87253 0,-2.70968c-0.4886,-0.83715 -1.39011,-1.34637 -2.35932,-1.33266zM18.77051,112.83826c-1.4822,0.02317 -2.66581,1.242 -2.64551,2.72424v5.375c-0.01371,0.96921 0.49551,1.87072 1.33266,2.35932c0.83715,0.4886 1.87253,0.4886 2.70968,0c0.83715,-0.4886 1.34637,-1.39011 1.33266,-2.35932v-5.375c0.00995,-0.72643 -0.2746,-1.42595 -0.78881,-1.93917c-0.51421,-0.51322 -1.21427,-0.79642 -1.94068,-0.78507zM32.20801,112.83826c-1.4822,0.02317 -2.66581,1.242 -2.64551,2.72424v5.375c-0.01371,0.96921 0.49551,1.87072 1.33266,2.35932c0.83715,0.4886 1.87253,0.4886 2.70968,0c0.83715,-0.4886 1.34637,-1.39011 1.33266,-2.35932v-5.375c0.00995,-0.72643 -0.2746,-1.42595 -0.78881,-1.93917c-0.51421,-0.51322 -1.21427,-0.79642 -1.94068,-0.78507zM45.64551,112.83826c-1.4822,0.02317 -2.66581,1.242 -2.64551,2.72424v5.375c-0.01371,0.96921 0.49551,1.87072 1.33266,2.35932c0.83715,0.4886 1.87253,0.4886 2.70968,0c0.83715,-0.4886 1.34637,-1.39011 1.33266,-2.35932v-5.375c0.00995,-0.72643 -0.2746,-1.42595 -0.78881,-1.93917c-0.51421,-0.51322 -1.21427,-0.79642 -1.94068,-0.78507zM59.08301,112.83826c-1.4822,0.02317 -2.66581,1.242 -2.64551,2.72424v5.375c-0.01371,0.96921 0.49551,1.87072 1.33266,2.35932c0.83715,0.4886 1.87253,0.4886 2.70968,0c0.83715,-0.4886 1.34637,-1.39011 1.33266,-2.35932v-5.375c0.00995,-0.72643 -0.2746,-1.42595 -0.78881,-1.93917c-0.51421,-0.51322 -1.21427,-0.79642 -1.94068,-0.78507zM72.52051,112.83826c-1.4822,0.02317 -2.66581,1.242 -2.64551,2.72424v5.375c-0.01371,0.96921 0.49551,1.87072 1.33266,2.35932c0.83715,0.4886 1.87253,0.4886 2.70968,0c0.83715,-0.4886 1.34637,-1.39011 1.33266,-2.35932v-5.375c0.00995,-0.72643 -0.2746,-1.42595 -0.78881,-1.93917c-0.51421,-0.51322 -1.21427,-0.79642 -1.94068,-0.78507zM85.95801,112.83826c-1.4822,0.02317 -2.66581,1.242 -2.64551,2.72424v5.375c-0.01371,0.96921 0.49551,1.87072 1.33266,2.35932c0.83715,0.4886 1.87253,0.4886 2.70968,0c0.83715,-0.4886 1.34637,-1.39011 1.33266,-2.35932v-5.375c0.00995,-0.72643 -0.2746,-1.42595 -0.78881,-1.93917c-0.51421,-0.51322 -1.21427,-0.79642 -1.94068,-0.78507zM99.39551,112.83826c-1.4822,0.02317 -2.66581,1.242 -2.64551,2.72424v5.375c-0.01371,0.96921 0.49551,1.87072 1.33266,2.35932c0.83715,0.4886 1.87253,0.4886 2.70968,0c0.83715,-0.4886 1.34637,-1.39011 1.33266,-2.35932v-5.375c0.00995,-0.72643 -0.2746,-1.42595 -0.78881,-1.93917c-0.51421,-0.51322 -1.21427,-0.79642 -1.94068,-0.78507zM112.83301,112.83826c-1.4822,0.02317 -2.66581,1.242 -2.64551,2.72424v5.375c-0.01371,0.96921 0.49551,1.87072 1.33266,2.35932c0.83715,0.4886 1.87253,0.4886 2.70968,0c0.83715,-0.4886 1.34637,-1.39011 1.33266,-2.35932v-5.375c0.00995,-0.72643 -0.2746,-1.42595 -0.78881,-1.93917c-0.51421,-0.51322 -1.21427,-0.79642 -1.94068,-0.78507zM126.27051,112.83826c-1.4822,0.02317 -2.66581,1.242 -2.64551,2.72424v5.375c-0.01371,0.96921 0.49551,1.87072 1.33266,2.35932c0.83715,0.4886 1.87253,0.4886 2.70968,0c0.83715,-0.4886 1.34637,-1.39011 1.33266,-2.35932v-5.375c0.00995,-0.72643 -0.2746,-1.42595 -0.78881,-1.93917c-0.51421,-0.51322 -1.21427,-0.79642 -1.94068,-0.78507zM139.70801,112.83826c-1.4822,0.02317 -2.66581,1.242 -2.64551,2.72424v5.375c-0.01371,0.96921 0.49551,1.87072 1.33266,2.35932c0.83715,0.4886 1.87253,0.4886 2.70968,0c0.83715,-0.4886 1.34637,-1.39011 1.33266,-2.35932v-5.375c0.00995,-0.72643 -0.2746,-1.42595 -0.78881,-1.93917c-0.51421,-0.51322 -1.21427,-0.79642 -1.94068,-0.78507zM153.14551,112.83826c-1.4822,0.02317 -2.66581,1.242 -2.64551,2.72424v5.375c-0.01371,0.96921 0.49551,1.87072 1.33266,2.35932c0.83715,0.4886 1.87253,0.4886 2.70968,0c0.83715,-0.4886 1.34637,-1.39011 1.33266,-2.35932v-5.375c0.00995,-0.72643 -0.2746,-1.42595 -0.78881,-1.93917c-0.51421,-0.51322 -1.21427,-0.79642 -1.94068,-0.78507z"></path></g></g></svg>