<svg version="1.1" xmlns="http://www.w3.org/2000/svg" xmlns:xlink="http://www.w3.org/1999/xlink" viewBox="0 0 172 172"><g fill="none" fill-rule="nonzero" stroke="none" stroke-width="1" stroke-linecap="butt" stroke-linejoin="miter" stroke-miterlimit="10" stroke-dasharray="" stroke-dashoffset="0" font-family="none" font-weight="none" font-size="none" text-anchor="none" style="mix-blend-mode: normal"><path d="M0,172v-172h172v172z" fill="none"></path><g fill="#ffffff"><path d="M37.95833,60.05079c-0.29917,-0.8391 -0.94229,-1.46072 -1.72298,-1.74484c-11.79755,-4.30083 -15.17258,-19.49384 -6.2739,-28.39288c5.12775,-5.12775 12.57646,-6.13309 18.00768,-4.04968c15.17975,5.82282 14.87664,26.04326 1.07628,32.05382c-1.45141,0.63201 -2.1153,2.32096 -1.48329,3.77237c0.63201,1.45141 2.32096,2.1153 3.77237,1.48329c14.79316,-6.44265 18.50748,-25.87128 7.06571,-37.31342c-2.08449,-2.08449 -4.47532,-3.67742 -7.02665,-4.79204c-1.04153,-3.63658 -0.86884,-7.51929 0.52023,-11.06164c2.27689,-5.80598 11.39269,-5.72393 12.30847,0.52238c0.72911,4.97118 4.5588,8.80051 9.52962,9.52962c6.18612,0.90682 6.38891,10.00721 0.52238,12.30811c-1.47362,0.57791 -2.19986,2.24106 -1.62195,3.71504c0.57863,1.47613 2.24357,2.19878 3.71504,1.62195c5.18758,-2.03433 8.68335,-7.38959 7.74609,-13.78674c-0.72839,-4.97118 -4.5588,-8.80051 -9.52998,-9.52998c-2.446,-0.35864 -4.33057,-2.24321 -4.68921,-4.68921c-0.69077,-4.70928 -4.23491,-8.75215 -9.71593,-9.55721c-5.87406,-0.86275 -11.46829,2.33493 -13.60115,7.77367c-1.43457,3.65879 -1.89496,7.59059 -1.38405,11.43031c-15.0092,-1.97307 -27.75657,10.74742 -25.78063,25.78028c-3.83972,-0.51091 -7.77117,-0.05052 -11.43031,1.38405c-5.43874,2.13286 -8.63427,7.72602 -7.77367,13.60079c0.79431,5.42083 4.79276,9.01727 9.55721,9.71629c2.446,0.35864 4.33057,2.24321 4.68921,4.68921c0.72911,4.97082 4.55844,8.80123 9.52926,9.52962c6.37386,0.93404 11.74381,-2.5345 13.78746,-7.74609c2.04401,-5.21266 2.11674,-10.98138 0.20673,-16.24707zM32.41425,74.20549c-2.27259,5.79595 -11.39162,5.72823 -12.30811,-0.52238c-0.72911,-4.97118 -4.5588,-8.80051 -9.52962,-9.52962c-6.1854,-0.90753 -6.39213,-10.00649 -0.52238,-12.30847c3.54235,-1.38906 7.42542,-1.56176 11.06164,-0.52023c2.3636,5.41079 6.66264,9.57584 11.82156,11.82837c1.03866,3.63407 0.8649,7.5132 -0.52309,11.05232zM140.3145,140.17262c-1.07987,-5.83715 -5.90594,-10.09929 -11.73987,-10.36442c-2.72331,-0.12468 -5.42656,0.23611 -7.9976,1.05335c-0.62341,-4.67488 -3.47821,-8.82559 -7.88976,-10.99536l-28.35562,-13.94582c-7.10798,-3.49577 -15.68994,-0.5729 -19.18607,6.5358c-8.47985,17.24203 -7.91985,15.99592 -8.34836,17.27284c-2.60006,1.27047 -5.46955,1.8706 -8.36377,1.73911c-6.21442,-0.28269 -9.09359,-8.9277 -3.47212,-11.81081c4.46887,-2.2923 6.85826,-7.15062 5.94571,-12.0892c-1.01609,-5.49965 5.8067,-8.70127 10.23687,-5.59137c1.29591,0.90968 3.08339,0.59654 3.99271,-0.69937c0.90968,-1.29555 0.59654,-3.08303 -0.69937,-3.99271c-8.65039,-6.07147 -21.11829,0.76601 -19.16744,11.32498c0.44893,2.42952 -0.7266,4.81927 -2.92503,5.94714c-4.46887,2.29194 -6.85754,7.15026 -5.94571,12.0874c1.17015,6.33588 6.19149,10.29706 11.77391,10.55073c2.70576,0.12325 5.41115,-0.23396 8.00763,-1.06016c0.60801,4.59176 3.42053,8.80911 7.87973,11.00216l27.76051,13.65274c1.43242,0.70439 3.14394,0.10139 3.83686,-1.30702c0.69865,-1.42059 0.11322,-3.13856 -1.30702,-3.83686l-27.76015,-13.65274c-4.25497,-2.09273 -6.0145,-7.25703 -3.92177,-11.51236l7.62069,-15.49432c2.09739,-4.26465 7.24664,-6.01952 11.512,-3.92177l28.35598,13.94582c4.26393,2.09739 6.01988,7.24664 3.92141,11.512l-7.62104,15.49504c-0.81796,1.66458 -1.44961,1.76419 -1.66817,2.95906c-0.04622,0.25116 -0.06198,0.54352 -0.02723,0.84555c0.43173,3.7738 2.19341,8.18857 5.227,11.77498c3.73904,4.42086 10.05092,5.70423 15.3743,2.97196c4.90418,-2.51694 6.98294,-7.47128 6.11375,-12.17518c-0.44893,-2.42952 0.7266,-4.81963 2.92503,-5.94714c4.26035,-2.18481 6.91343,-6.86184 5.91203,-12.27407zM131.787,147.34581c-4.46887,2.29194 -6.85826,7.15026 -5.94607,12.08955c1.14794,6.20798 -7.45408,9.21326 -11.47367,4.45955c-1.87203,-2.21347 -3.14788,-4.85223 -3.72865,-7.68733c0.35578,-0.53133 0.6811,-1.08452 0.9645,-1.66064c8.21866,-16.71642 7.91448,-15.978 8.35087,-17.27463c2.59863,-1.26976 5.46454,-1.87024 8.36054,-1.73767c6.28429,0.28591 9.03806,8.95672 3.47248,11.81117zM171.23399,109.10336l-21.18565,-57.33178c-5.31406,-14.38221 -21.30424,-21.74421 -35.68789,-16.42908c-14.36859,5.3094 -21.73848,21.31893 -16.42872,35.68753l2.79604,7.56587c2.19735,5.94643 8.78654,8.98001 14.7344,6.78302c1.48473,-0.54853 2.24357,-2.19699 1.69468,-3.68208c-0.54853,-1.48508 -2.19628,-2.24393 -3.68208,-1.69504c-2.97375,1.09921 -6.27103,-0.41847 -7.36989,-3.39294l-2.79604,-7.56587c-4.21377,-11.4038 1.63521,-24.1096 13.039,-28.32373c11.41132,-4.21556 24.10674,1.62732 28.32409,13.03936l21.18565,57.33178c1.09921,2.97483 -0.41847,6.27103 -3.39366,7.37025c-2.97375,1.09885 -6.27103,-0.41812 -7.36989,-3.39294l-21.18529,-57.33214c-0.97776,-2.64592 -2.9304,-4.75442 -5.49822,-5.9364c-5.31155,-2.44493 -11.5747,-0.13292 -14.02178,5.18114c-1.18198,2.56782 -1.29448,5.4391 -0.31672,8.08502l2.79604,7.56587c0.54853,1.48508 2.19664,2.24393 3.68208,1.69504c1.48473,-0.54853 2.24357,-2.19735 1.69468,-3.68208l-2.79604,-7.56587c-1.47362,-3.98769 2.62013,-7.88725 6.56411,-6.07219c1.1766,0.54172 2.07088,1.50658 2.51802,2.71615l21.18529,57.33214c1.7495,4.73436 6.20977,7.5003 10.7528,7.5003c7.98112,-0.00072 13.52412,-7.98363 10.76498,-15.45133z"></path></g></g></svg>