<svg version="1.1" xmlns="http://www.w3.org/2000/svg" xmlns:xlink="http://www.w3.org/1999/xlink" viewBox="0 0 172 172"><g fill="none" fill-rule="nonzero" stroke="none" stroke-width="1" stroke-linecap="butt" stroke-linejoin="miter" stroke-miterlimit="10" stroke-dasharray="" stroke-dashoffset="0" font-family="none" font-weight="none" font-size="none" text-anchor="none" style="mix-blend-mode: normal"><path d="M0,172v-172h172v172z" fill="none"></path><g fill="#ffffff"><path d="M96.75,10.75c-3.05514,0 -6.82704,0.85575 -9.43564,3.46436c-4.59956,4.59956 -4.59956,12.12173 0,16.72129c1.50863,1.50863 4.07629,5.40946 6.05527,9.28027c1.78808,3.49741 2.81539,6.82735 3.05283,8.34385c-0.9432,0.53618 -1.8478,0.93657 -2.96465,2.03662c-1.66732,1.64224 -3.15781,4.17112 -3.15781,7.45361c0,2.95977 0.6007,5.33097 1.13379,7.60059c0.43931,1.87038 0.70618,3.88622 0.83564,6.13926c-7.05355,-0.07396 -12.7284,4.19139 -15.5833,7.04629c-2.8549,2.8549 -7.12025,8.52975 -7.04629,15.5833c-2.25304,-0.12946 -4.26888,-0.39633 -6.13926,-0.83564c-2.26962,-0.53309 -4.64081,-1.13379 -7.60059,-1.13379c-3.28249,0 -5.81137,1.49049 -7.45361,3.15781c-1.10005,1.11685 -1.50044,2.02145 -2.03662,2.96465c-1.5165,-0.23744 -4.84644,-1.26475 -8.34385,-3.05283c-3.87081,-1.97898 -7.77164,-4.54664 -9.28027,-6.05527c-4.59956,-4.59956 -12.12173,-4.59956 -16.72129,0c-2.60861,2.60861 -3.46436,6.3805 -3.46436,9.43564c0,6.57812 3.49542,13.29435 7.79375,19.29121c3.70093,5.16339 7.96431,9.59699 11.58145,12.8916c-0.01669,0.61191 0.23163,1.1907 0.69287,1.6209c-0.37747,1.34334 -0.71387,2.68397 -0.71387,3.82129c-0.00129,3.55647 1.57215,6.68009 4.04805,9.05772c2.4759,2.37762 5.80773,4.12451 9.654,5.46738c7.69254,2.68575 17.53355,3.7499 27.14375,3.7499c5.6317,0 11.26393,-0.77697 15.70928,-1.82666c0.44332,1.42463 1.04619,2.98833 2.34316,4.48476c1.91277,2.20694 5.15824,3.79189 9.89756,3.79189c20.03211,0 36.11956,-9.42933 44.52012,-17.82988c8.40056,-8.40056 17.82988,-24.48801 17.82988,-44.52012c0,-4.73932 -1.58496,-7.98479 -3.79189,-9.89756c-1.49644,-1.29697 -3.06014,-1.89984 -4.48476,-2.34316c1.04969,-4.44535 1.82666,-10.07758 1.82666,-15.70928c0,-9.6102 -1.06416,-19.45121 -3.7499,-27.14375c-1.34287,-3.84627 -3.08976,-7.17811 -5.46738,-9.654c-2.37762,-2.4759 -5.50124,-4.04934 -9.05772,-4.04805c-1.36054,0 -3.00461,0.45702 -4.60654,0.92383c-3.34943,-3.78371 -8.1422,-8.48113 -13.72725,-12.48428c-5.99686,-4.29833 -12.71309,-7.79375 -19.29121,-7.79375zM96.75,15.05c4.97813,0 11.1619,2.95458 16.78848,6.9875c5.62658,4.03292 10.71688,9.05617 13.82803,12.68584c0.61238,0.71393 1.61771,0.94697 2.48174,0.57529c1.48157,-0.63596 3.21284,-0.89443 4.52676,-0.89443c2.35603,-0.00086 4.20428,0.89837 5.95869,2.72529c1.75441,1.82692 3.29971,4.62968 4.50996,8.09609c2.4205,6.93284 3.50635,16.44042 3.50635,25.72441c0,5.37024 -0.74563,11.085 -1.71328,15.11299c-1.11416,-0.23075 -2.24661,0.43682 -2.51953,1.57051c-0.28165,1.1395 0.40531,2.32401 1.56631,2.60351c0.172,0.043 0.3445,0.06299 0.5165,0.06299c0.37914,0 0.73099,-0.12248 1.0498,-0.30234c0.17305,0.10253 0.35964,0.18028 0.5543,0.23096c1.68681,0.44459 3.42531,0.93109 4.68633,2.02402c1.26101,1.09293 2.30957,2.78668 2.30957,6.64736c0,18.66789 -8.98757,33.89734 -16.57012,41.47988c-7.58254,7.58254 -22.81199,16.57012 -41.47988,16.57012c-3.86068,0 -5.55443,-1.04856 -6.64736,-2.30957c-1.04802,-1.20919 -1.5305,-2.85986 -1.96103,-4.48057c0.50861,-0.52543 0.75781,-1.277 0.5459,-2.04502c-0.30315,-1.1395 -1.48716,-1.80852 -2.62451,-1.50752c-0.95405,0.26502 -1.54206,1.11542 -1.56631,2.04082c-4.03604,1.03608 -10.06996,1.85186 -15.69668,1.85186c-9.284,0 -18.79158,-1.08584 -25.72441,-3.50635c-3.46642,-1.21025 -6.26917,-2.75555 -8.09609,-4.50996c-1.82692,-1.75441 -2.72615,-3.60266 -2.72529,-5.95869c0,-1.31392 0.25848,-3.04519 0.89443,-4.52676c0.37168,-0.86403 0.13863,-1.86936 -0.57529,-2.48174c-3.62967,-3.11114 -8.65292,-8.20145 -12.68584,-13.82803c-4.03292,-5.62658 -6.9875,-11.81035 -6.9875,-16.78848c0,-2.07476 0.9002,-5.09102 2.20459,-6.39541c2.95554,-2.95554 7.68528,-2.95554 10.64082,0c2.26892,2.26892 6.23702,4.73494 10.36367,6.84472c3.60402,1.84258 7.0086,3.4008 9.94375,3.7667c0.01661,0.01027 0.02502,0.0279 0.04199,0.03779c0.34615,0.17415 0.71165,0.28135 1.075,0.28135c0.73315,0 1.4623,-0.3865 1.86865,-1.096c0.00972,-0.01725 0.0076,-0.03719 0.0168,-0.05459c0.05053,-0.06994 0.09681,-0.14286 0.13857,-0.21836c0.53705,-1.0003 1.24594,-2.35922 2.31377,-3.44336c1.06784,-1.08414 2.33212,-1.87285 4.39238,-1.87285c2.38298,0 4.31078,0.4743 6.61797,1.01621c2.30719,0.54191 4.96814,1.13379 8.43203,1.13379h0.04199c0.00072,0.19228 -0.01228,0.38411 0.04199,0.57949c0.258,0.946 1.12002,1.57051 2.06602,1.57051c0.1935,0 0.38814,-0.01999 0.57949,-0.06299c1.1395,-0.3225 1.80432,-1.5055 1.50332,-2.6665h-0.021c-0.17627,-0.66604 -0.66864,-1.13831 -1.26816,-1.37734c0.0182,-0.1948 0.00972,-0.39118 -0.0252,-0.58369c-1.1374,-6.14196 3.08801,-11.71321 5.85791,-14.48311c2.7426,-2.7426 8.23246,-6.9053 14.30254,-5.88311c0.1368,0.80775 0.7396,1.50307 1.58311,1.72588c0.172,0.04515 0.36345,0.06719 0.5333,0.06719c0.94815,0 1.82901,-0.6445 2.08701,-1.6335c0.27189,-1.10847 -0.39715,-2.24247 -1.48232,-2.56152v-0.49131c0,-3.46389 -0.59188,-6.12484 -1.13379,-8.43203c-0.54191,-2.30719 -1.01621,-4.23499 -1.01621,-6.61797c0,-2.06026 0.78871,-3.32455 1.87285,-4.39238c1.08414,-1.06783 2.44306,-1.77672 3.44336,-2.31377c0.01977,-0.01089 0.03937,-0.02209 0.05879,-0.03359c0.32832,0.19041 0.70078,0.28975 1.075,0.28975c0.344,0 0.68686,-0.08415 1.03301,-0.25615h-0.021c1.0535,-0.559 1.44084,-1.87601 0.88184,-2.90586c-0.42582,-0.80252 -1.29059,-1.2077 -2.1332,-1.11279c-0.53268,-2.72949 -1.94832,-5.81333 -3.61133,-9.06611c-2.10978,-4.12665 -4.57581,-8.09475 -6.84472,-10.36367c-2.95554,-2.95554 -2.95554,-7.68528 0,-10.64082c1.30439,-1.30439 4.32065,-2.20459 6.39541,-2.20459zM123.56201,35.08027c-0.27816,0.02587 -0.55547,0.1038 -0.81885,0.24356c-1.0535,0.55685 -1.44134,1.86916 -0.86084,2.92265c0.3655,0.7095 1.11995,1.12119 1.88965,1.12119c0.344,0 0.68951,-0.08835 1.01201,-0.26035c1.0535,-0.559 1.44084,-1.87181 0.88184,-2.90166c-0.43537,-0.79013 -1.26934,-1.20299 -2.10381,-1.12539zM115.98242,39.15352c-0.27701,0.02734 -0.55245,0.11049 -0.81045,0.25615c-1.05135,0.559 -1.43879,1.84816 -0.87764,2.90166c0.387,0.731 1.13705,1.14014 1.89385,1.13799c0.344,0 0.70846,-0.08415 1.02881,-0.25615c1.032,-0.5805 1.44134,-1.87336 0.86084,-2.92686c-0.41925,-0.77239 -1.26437,-1.19483 -2.09541,-1.11279zM108.41963,43.23096c-0.27681,0.02419 -0.55245,0.1038 -0.81045,0.24355c-1.0535,0.55685 -1.44084,1.86916 -0.88184,2.92266c0.38485,0.7095 1.13715,1.11699 1.88965,1.11699c0.344,0 0.71051,-0.06265 1.03301,-0.25615h-0.021c1.05135,-0.559 1.44299,-1.84816 0.88184,-2.90166c-0.41925,-0.774 -1.26078,-1.19795 -2.09121,-1.12539zM104.14902,75.60273c-0.82943,0.13001 -1.53305,0.73335 -1.74268,1.6041c-0.29885,1.13735 0.40581,2.29617 1.54531,2.59932c0.172,0.043 0.36601,0.06504 0.51651,0.06719c0.9675,0 1.84796,-0.6445 2.10381,-1.6335c0.28165,-1.161 -0.42681,-2.32401 -1.56631,-2.60351c-0.29025,-0.06987 -0.58016,-0.07693 -0.85664,-0.0336zM112.49287,77.68555c-0.82943,0.13001 -1.53725,0.73755 -1.74688,1.6083c-0.301,1.1395 0.40951,2.31982 1.57051,2.59932h-0.02519c0.1935,0.04085 0.3655,0.06504 0.5375,0.06719c0.9675,0 1.82901,-0.6487 2.08701,-1.6377c0.2795,-1.13735 -0.40531,-2.31767 -1.56631,-2.59932c-0.29025,-0.06987 -0.58016,-0.08113 -0.85664,-0.03779zM120.83252,79.76416c-0.82943,0.12608 -1.53725,0.74175 -1.74688,1.6125c-0.29885,1.1395 0.41216,2.30252 1.54951,2.60352h0.021c0.172,0.043 0.3446,0.06504 0.5123,0.06719c0.9675,0 1.82901,-0.6702 2.08701,-1.6377c0.2795,-1.161 -0.40531,-2.31982 -1.56631,-2.59932c-0.29025,-0.07579 -0.58016,-0.08822 -0.85664,-0.04619zM129.17637,81.84697c-0.82943,0.12688 -1.53725,0.74336 -1.74688,1.6125c-0.301,1.1395 0.40951,2.32187 1.57051,2.60352c0.172,0.043 0.3445,0.06719 0.5165,0.06719c0.96535,0 1.82901,-0.6445 2.08701,-1.6335c0.2795,-1.1395 -0.40951,-2.32401 -1.57051,-2.60351c-0.29025,-0.07525 -0.58016,-0.08849 -0.85664,-0.04619zM137.52861,83.94238c-0.8256,0.13001 -1.54404,0.73335 -1.75527,1.6041c-0.2795,1.13735 0.40951,2.32402 1.57051,2.60352c0.172,0.043 0.34031,0.06504 0.51231,0.06719c0.96535,0 1.82901,-0.6487 2.08701,-1.6377c0.2795,-1.13735 -0.40951,-2.31982 -1.57051,-2.59932c-0.28434,-0.06987 -0.56884,-0.08113 -0.84404,-0.03779zM75.65732,105.05186c-0.27879,-0.03705 -0.57059,-0.0171 -0.86084,0.06299c-1.1395,0.3225 -1.80432,1.50181 -1.50332,2.64131c0.2795,0.96535 1.13896,1.5915 2.08281,1.5915c0.1935,0 0.38864,-0.02368 0.55849,-0.08818c1.161,-0.32035 1.83002,-1.50181 1.50752,-2.64131c-0.22414,-0.85463 -0.94828,-1.45515 -1.78467,-1.56631zM43.15537,106.60977c-0.83145,-0.10008 -1.67683,0.2884 -2.11221,1.0624c-0.602,1.02985 -0.23415,2.34165 0.79785,2.94365c0.32035,0.1935 0.6843,0.28135 1.0498,0.28135c0.75035,0 1.48165,-0.38915 1.86865,-1.075c0.602,-1.032 0.2362,-2.34165 -0.79365,-2.94365c-0.258,-0.14566 -0.5333,-0.23539 -0.81045,-0.26875zM77.9249,113.35791c-0.27614,-0.03819 -0.56337,-0.0212 -0.84824,0.05459c-1.1395,0.32035 -1.82787,1.48031 -1.50752,2.64131c0.26015,0.94815 1.12012,1.59365 2.06182,1.5915c0.19565,0 0.3907,-0.03883 0.5627,-0.08398c1.15241,-0.31798 1.80891,-1.49073 1.52432,-2.62031c-0.24187,-0.87075 -0.96464,-1.46852 -1.79307,-1.58311zM38.88057,114.08438c-0.83094,-0.10199 -1.67942,0.29841 -2.11641,1.0708c-0.5805,1.032 -0.232,2.34001 0.79785,2.92266c0.344,0.1935 0.7095,0.28135 1.075,0.28135c0.731,0 1.46015,-0.387 1.86865,-1.075c0.57835,-1.032 0.2152,-2.34421 -0.81465,-2.92686c-0.258,-0.14996 -0.53347,-0.23895 -0.81045,-0.27295zM34.62256,121.54219c-0.83054,-0.1028 -1.68103,0.2968 -2.11641,1.0708c-0.602,1.02985 -0.23415,2.3438 0.79785,2.94365c0.3225,0.172 0.68646,0.28135 1.04981,0.28135c0.7525,0 1.48585,-0.3865 1.87285,-1.096c0.602,-1.02985 0.23415,-2.34216 -0.79785,-2.92266c-0.25746,-0.1505 -0.52941,-0.24288 -0.80625,-0.27715zM80.17148,121.65977c-0.27883,-0.03847 -0.57059,-0.02486 -0.86084,0.05039c-1.1395,0.3225 -1.80432,1.48451 -1.50332,2.64551c0.26015,0.946 1.12012,1.58935 2.06182,1.5915c0.19565,0 0.36284,-0.02163 0.55849,-0.08398c1.161,-0.30315 1.82952,-1.48501 1.52852,-2.62451c-0.22575,-0.86914 -0.94818,-1.46351 -1.78467,-1.5789zM82.39707,129.95742c-0.27614,-0.0383 -0.56337,-0.02066 -0.84824,0.05459c-1.1395,0.3225 -1.82787,1.48031 -1.50752,2.64131c0.26015,0.946 1.12012,1.58935 2.06182,1.5915c0.19565,0 0.36705,-0.01948 0.5627,-0.08398c1.13735,-0.301 1.82532,-1.48501 1.52432,-2.62451c-0.24187,-0.87075 -0.96464,-1.46402 -1.79307,-1.57891zM84.64785,138.25928c-0.27883,-0.03786 -0.57059,-0.0254 -0.86084,0.05039c-1.1395,0.32035 -1.80852,1.50816 -1.50752,2.64551c0.258,0.946 1.14101,1.58935 2.08701,1.5915c0.16985,0 0.365,-0.01948 0.5585,-0.08398c1.1395,-0.301 1.82367,-1.48716 1.50332,-2.62451v-0.021c-0.22575,-0.85462 -0.94399,-1.44433 -1.78047,-1.55791z"></path></g></g></svg>