<svg version="1.1" xmlns="http://www.w3.org/2000/svg" xmlns:xlink="http://www.w3.org/1999/xlink" viewBox="0 0 172 172"><g fill="none" fill-rule="nonzero" stroke="none" stroke-width="1" stroke-linecap="butt" stroke-linejoin="miter" stroke-miterlimit="10" stroke-dasharray="" stroke-dashoffset="0" font-family="none" font-weight="none" font-size="none" text-anchor="none" style="mix-blend-mode: normal"><path d="M0,172v-172h172v172z" fill="none"></path><g fill="#ffffff"><path d="M171.99928,64.5004c0,43.5546 -42.49431,74.64686 -83.99891,61.49832c-1.50928,-0.47801 -2.34527,-2.08942 -1.8669,-3.59835c0.47801,-1.50893 2.08978,-2.34527 3.59835,-1.8669c37.84821,11.99043 76.53419,-16.39645 76.53419,-56.03307c0,-9.94293 -2.52372,-19.72246 -7.29595,-28.36752c-14.95704,-3.98212 -29.9216,-0.50596 -39.27794,9.20011c-2.98417,3.09561 -3.15796,4.72529 -5.28214,4.72529c-0.31354,0 -0.72168,-0.06916 -1.06137,-0.20496c-10.30413,-4.11864 -21.61516,3.49694 -21.61516,14.64708c0,8.69379 7.07271,15.7665 15.7665,15.7665c8.69379,0 15.7665,-7.07271 15.7665,-15.7665c0,-2.14317 -0.31067,-2.07831 -0.22181,-2.96088c0.25226,-2.52407 2.60541,-3.33856 4.24764,-2.43234c10.62841,1.38602 19.83749,7.05049 26.58196,15.43541c0.99257,1.23373 0.79693,3.03828 -0.4368,4.03049c-1.23337,0.99257 -3.03792,0.79657 -4.03049,-0.4368c-5.2291,-6.50046 -12.22513,-11.23112 -20.4255,-12.9357c-0.18561,5.76731 -2.65128,10.9656 -6.5259,14.72376c3.93983,10.26292 3.18376,21.69005 -1.35807,31.90423c-0.47515,1.06818 -1.5229,1.70278 -2.62082,1.70278c-2.05825,0 -3.46397,-2.12919 -2.61796,-4.03192c3.68721,-8.29282 4.56404,-17.5947 1.77552,-26.04411c-4.917,2.63981 -10.65063,3.25077 -16.02199,1.71891c-9.77057,12.05887 -25.58975,16.8139 -41.19321,14.45502c6.00811,8.07567 11.93524,11.83706 12.61499,12.51681c1.06066,1.06066 1.13089,2.78924 0.10965,3.93267c-0.14692,0.16483 -16.08076,16.09222 -52.33941,52.35124c-7.60555,7.6059 -20.8039,2.2779 -20.8039,-8.61747c0,-3.25507 1.26777,-6.31556 3.56932,-8.61747l40.2698,-40.2698c1.11942,-1.11978 2.93436,-1.11978 4.05378,0c1.11978,1.11942 1.11978,2.93436 0,4.05378l-40.26872,40.27016c-1.21904,1.21904 -1.89019,2.8394 -1.89019,4.56333c0,5.79419 7.00104,8.57841 11.01684,4.56333l49.93574,-49.93574c-24.77419,-20.29615 -30.61425,-55.04874 -15.16379,-81.95643c0.08062,-0.17486 0.17809,-0.34149 0.29168,-0.49629c19.22653,-32.80257 62.36548,-41.98763 93.13846,-20.00411c1.28819,0.92019 1.58633,2.71076 0.66613,3.99896c-0.92019,1.28819 -2.71076,1.58633 -3.99896,0.66613c-27.6849,-19.77764 -66.59341,-11.92772 -84.41815,17.48935c2.95156,10.8925 9.51903,20.10623 18.14796,25.40127c1.34947,0.8281 1.77194,2.59323 0.9442,3.9427c-0.8281,1.34947 -2.59323,1.7723 -3.9427,0.9442c-8.32292,-5.10727 -14.9513,-13.33846 -18.82162,-23.1678c-7.12682,16.48495 -6.33993,35.5076 2.55023,51.62419c14.58688,3.86709 30.33368,0.78976 40.07415,-10.12998c-11.84423,-7.38911 -13.69249,-23.89628 -3.61125,-33.6751c-3.82732,-9.96837 -3.30129,-20.79888 0.93632,-30.92671c0.61095,-1.46055 2.29008,-2.14926 3.75099,-1.53795c1.46055,0.61095 2.14926,2.29044 1.53795,3.75099c-3.40951,8.14949 -4.12724,16.93036 -1.40429,25.18305c5.02665,-2.69858 10.79289,-3.21493 16.02629,-1.72464c11.29885,-13.94045 30.4874,-17.99818 48.09966,-12.94072c0.76109,0.16519 1.45338,0.63532 1.87442,1.36273c5.64907,9.76126 8.63467,20.91534 8.63467,32.25647z"></path></g></g></svg>